{"title":"Bahar DVD 45 (ep. 113-114-115).avi","uid":15800460,"size":1970309120,"categoryP":"video","categoryS":"tv_shows","magnet":"?xt=urn:btih:9487329acfef81691e7906668cb3b8e8d28a43fe&amp;dn=Bahar+DVD+45+%28ep.+113-114-115%29.avi&amp;tr=udp%3A%2F%2Ftracker.leechers-paradise.org%3A6969&amp;tr=udp%3A%2F%2Fzer0day.ch%3A1337&amp;tr=udp%3A%2F%2Fopen.demonii.com%3A1337&amp;tr=udp%3A%2F%2Ftracker.coppersurfer.tk%3A6969&amp;tr=udp%3A%2F%2Fexodus.desync.com%3A6969","seeders":14,"leechers":2,"uploader":"fotaras65","files":1,"time":1473493901,"description":"Bahar aka O Hayat benim\r\nGreek Subtitles\r\n\r\nGeneral\r\nComplete name                  : Bahar DVD 45 (ep. 113-114-115).avi\r\nFormat                         : AVI\r\nFormat/Info                    : Audio Video Interleave\r\nFile size                      : 1.83 GiB\r\nDuration                       : 2h 22mn\r\nOverall bit rate mode          : Variable\r\nOverall bit rate               : 1 841 Kbps\r\nWriting application            : VirtualDubMod 1.5.4.1 (build 2178/release)\r\nWriting library                : VirtualDubMod build 2178/release\r\n\r\nVideo\r\nID                             : 0\r\nFormat                         : MPEG-4 Visual\r\nFormat profile                 : Advanced   \r\nFormat settings, BVOP          : 1\r\nFormat settings, QPel          : No\r\nFormat settings, GMC           : No warppoints\r\nFormat settings, Matrix        : Custom\r\nCodec ID                       : XVID\r\nCodec ID/Hint                  : XviD\r\nDuration                       : 2h 22mn\r\nBit rate                       : 1 726 Kbps\r\nWidth                          : 720 pixels\r\nHeight                         : 416 pixels\r\nDisplay aspect ratio           : 1.731\r\nFrame rate                     : 25.000 fps\r\nColor space                    : YUV\r\nChroma subsampling             : 4:2:0\r\nBit depth                      : 8 bits\r\nScan type                      : Progressive\r\nCompression mode               : Lossy\r\nBits/(Pixel*Frame)             : 0.230\r\nStream size                    : 1.72 GiB (94%)\r\nWriting library                : XviD 1.2.1 (UTC 2008-12-04)\r\n\r\nAudio\r\nID                             : 1\r\nFormat                         : MPEG Audio\r\nFormat version                 : Version 1\r\nFormat profile                 : Layer 3\r\nMode                           : Joint stereo\r\nMode extension                 : MS Stereo\r\nCodec ID                       : 55\r\nCodec ID/Hint                  : MP3\r\nDuration                       : 2h 22mn\r\nBit rate mode                  : Variable\r\nBit rate                       : 102 Kbps\r\nNominal bit rate               : 128 Kbps\r\nChannel(s)                     : 2 channels\r\nSampling rate                  : 48.0 KHz\r\nCompression mode               : Lossy\r\nStream size                    : 104 MiB (6%)\r\nAlignment                      : Aligned on interleaves\r\nInterleave, duration           : 24 ms (0.60 video frame)\r\nInterleave, preload duration   : 466 ms\r\nWriting library                : LAME3.98r\r\nEncoding settings              : -m j -V 4 -q 2 -lowpass 17 --abr 128\r\nLanguage                       : Turkish","torrent":{"xt":"urn:btih:9487329acfef81691e7906668cb3b8e8d28a43fe","amp;dn":"Bahar+DVD+45+%28ep.+113-114-115%29.avi","amp;tr":["udp%3A%2F%2Ftracker.leechers-paradise.org%3A6969","udp%3A%2F%2Fzer0day.ch%3A1337","udp%3A%2F%2Fopen.demonii.com%3A1337","udp%3A%2F%2Ftracker.coppersurfer.tk%3A6969","udp%3A%2F%2Fexodus.desync.com%3A6969"],"infoHash":"9487329acfef81691e7906668cb3b8e8d28a43fe","infoHashBuffer":{"type":"Buffer","data":[148,135,50,154,207,239,129,105,30,121,6,102,140,179,184,232,210,138,67,254]},"announce":[],"urlList":[]}}